<svg xmlns="http://www.w3.org/2000/svg" viewBox="0 0 512 512" width="512" height="512">
	<style>
		tspan { white-space:pre }
		.shp0 { fill: #ffffff } 
	</style>
	<path id="Layer" fill-rule="evenodd" class="shp0" d="M504.9 476.7L476.6 505C467.3 514.4 452.1 514.4 442.7 505L343 405.3C338.5 400.8 336 394.7 336 388.3L336 372C300.7 399.6 256.3 416 208 416C93.1 416 0 322.9 0 208C0 93.1 93.1 0 208 0C322.9 0 416 93.1 416 208C416 256.3 399.6 300.7 372 336L388.3 336C394.7 336 400.8 338.5 405.3 343L505 442.7C514.3 452.1 514.3 467.3 504.9 476.7ZM336 208C336 137.2 278.7 80 208 80C137.2 80 80 137.3 80 208C80 278.8 137.3 336 208 336C278.8 336 336 278.7 336 208Z" />
</svg>